<?xml version="1.0" ?><svg id="Layer_1" style="enable-background:new 0 0 64 64;" version="1.1" viewBox="0 0 64 64" xml:space="preserve" xmlns="http://www.w3.org/2000/svg" xmlns:xlink="http://www.w3.org/1999/xlink"><style type="text/css">
	.st0{fill:#0CA3D1;}
	.st1{fill:none;stroke:#6081C4;stroke-width:1.858;stroke-linecap:round;stroke-linejoin:round;stroke-miterlimit:10;}
	.st2{fill:none;stroke:#0CA3D1;stroke-linecap:round;stroke-linejoin:round;stroke-miterlimit:10;}
	.st3{opacity:0.15;}
	.st4{opacity:0.2;}
	.st5{fill:#FFFFFF;}
</style><circle class="st0" cx="32" cy="32" r="26.1"/><path class="st2" d="M52.1,12.7c4.8,5,7.8,11.8,7.8,19.3c0,15.4-12.5,27.9-27.9,27.9S4.1,47.4,4.1,32S16.6,4.1,32,4.1  c3.4,0,6.7,0.6,9.7,1.7"/><path class="st2" d="M45.5,7.6c1.2,0.6,2.3,1.4,3.3,2.2"/><circle class="st3" cx="32" cy="32" r="22.8"/><circle class="st3" cx="32" cy="32" r="17.5"/><g><g class="st4"><path d="M23.8,33.2h3.6c0.8,0,2.2,0.3,2.2,1.9c0,0.8-0.6,1.7-1.4,1.7h-4.4V33.2z M35.4,26h6.5v2.2h-6.5V26z M41.1,33.2h-4.8    c0.2-1.3,1.1-2.2,2.4-2.2C39.9,31.1,40.9,31.9,41.1,33.2L41.1,33.2z M36.1,34.7h8c0-0.1,0-0.2,0-0.4c0-3-2.2-5.4-5.4-5.4    c-3.3,0-5.4,2.4-5.4,5.4c0,3,2.2,5.4,5.4,5.4c3.3,0,4.8-1.9,5.3-4.4h-2.9c-0.3,1.3-1,2.2-2.4,2.2C37.3,37.6,36.2,36.3,36.1,34.7    L36.1,34.7z M32.5,35.4c0-1.6-1-2.9-2.5-3.4c1-0.6,1.7-1.8,1.7-3.1c0-2-1.6-3.6-3.6-3.6h-7.3v14.5h7.3    C30.5,39.8,32.5,37.8,32.5,35.4L32.5,35.4z M27.4,31.1h-3.6v-2.9h3.6c0.8,0,1.5,0.7,1.5,1.5S28.2,31.1,27.4,31.1L27.4,31.1z"/></g><g><g><path class="st5" d="M23.3,32.7h3.6c0.8,0,2.2,0.3,2.2,1.9c0,0.8-0.6,1.7-1.4,1.7h-4.4V32.7z M34.9,25.5h6.5v2.2h-6.5V25.5z      M40.6,32.7h-4.8c0.2-1.3,1.1-2.2,2.4-2.2C39.4,30.6,40.4,31.4,40.6,32.7L40.6,32.7z M35.6,34.2h8c0-0.1,0-0.2,0-0.4     c0-3-2.2-5.4-5.4-5.4c-3.3,0-5.4,2.4-5.4,5.4c0,3,2.2,5.4,5.4,5.4c3.3,0,4.8-1.9,5.3-4.4h-2.9c-0.3,1.3-1,2.2-2.4,2.2     C36.8,37.1,35.7,35.8,35.6,34.2L35.6,34.2z M32,34.9c0-1.6-1-2.9-2.5-3.4c1-0.6,1.7-1.8,1.7-3.1c0-2-1.6-3.6-3.6-3.6h-7.3v14.5     h7.3C30,39.3,32,37.3,32,34.9L32,34.9z M26.9,30.6h-3.6v-2.9h3.6c0.8,0,1.5,0.7,1.5,1.5S27.7,30.6,26.9,30.6L26.9,30.6z"/></g></g></g></svg>