<?xml version="1.0" ?>
<svg id="Layer_1" style="enable-background:new 0 0 64 64;" version="1.1" viewBox="0 0 64 64" xml:space="preserve" width="64px" height="64px"
  xmlns="http://www.w3.org/2000/svg"
  xmlns:xlink="http://www.w3.org/1999/xlink">
  <style type="text/css">
	.st0{fill:#F89D45;}
	.st1{fill:none;stroke:#6081C4;stroke-width:1.858;stroke-linecap:round;stroke-linejoin:round;stroke-miterlimit:10;}
	.st2{fill:none;stroke:#F89D45;stroke-linecap:round;stroke-linejoin:round;stroke-miterlimit:10;}
	.st3{opacity:0.15;}
	.st4{opacity:0.2;}
	.st5{fill:#FFFFFF;}
</style>
  <circle class="st0" cx="32" cy="32" r="26.1"/>
  <path class="st2" d="M52.1,12.7c4.8,5,7.8,11.8,7.8,19.3c0,15.4-12.5,27.9-27.9,27.9S4.1,47.4,4.1,32S16.6,4.1,32,4.1  c3.4,0,6.7,0.6,9.7,1.7"/>
  <path class="st2" d="M45.5,7.6c1.2,0.6,2.3,1.4,3.3,2.2"/>
  <circle class="st3" cx="32" cy="32" r="22.8"/>
  <circle class="st3" cx="32" cy="32" r="17.5"/>
  <g>
    <g class="st4">
      <path d="M42.6,30.8l-0.2-0.4l-0.3-0.2c-0.4-0.3-2.3,0-2.8-0.4C39,29.4,39,28.8,38.8,28c-0.2-1.6-0.3-1.7-0.6-2.2    c-0.9-1.9-3.3-3.3-5-3.5h-4.5c-3.5,0-6.4,2.9-6.4,6.4v3.1v4.4c0,3.5,2.9,6.4,6.4,6.4h7.4c3.5,0,6.4-2.9,6.4-6.4l0-4.3l0-0.9    L42.6,30.8z M28.9,27.6h3.6c0.7,0,1.2,0.6,1.2,1.2c0,0.7-0.6,1.2-1.2,1.2h-3.6c-0.7,0-1.2-0.6-1.2-1.2    C27.6,28.1,28.2,27.6,28.9,27.6z M36.1,37.4h-7.3c-0.7,0-1.2-0.6-1.2-1.2c0-0.7,0.6-1.2,1.2-1.2h7.3c0.7,0,1.2,0.5,1.2,1.2    C37.3,36.8,36.8,37.4,36.1,37.4z"/>
    </g>
    <g>
      <path class="st5" d="M42.1,30.3l-0.2-0.4l-0.3-0.2c-0.4-0.3-2.3,0-2.8-0.4c-0.4-0.3-0.4-0.9-0.5-1.7c-0.2-1.6-0.3-1.7-0.6-2.2    c-0.9-1.9-3.3-3.3-5-3.5h-4.5c-3.5,0-6.4,2.9-6.4,6.4v3.1v4.4c0,3.5,2.9,6.4,6.4,6.4h7.4c3.5,0,6.4-2.9,6.4-6.4l0-4.3l0-0.9    L42.1,30.3z M28.4,27.1h3.6c0.7,0,1.2,0.6,1.2,1.2c0,0.7-0.6,1.2-1.2,1.2h-3.6c-0.7,0-1.2-0.6-1.2-1.2    C27.1,27.6,27.7,27.1,28.4,27.1z M35.6,36.9h-7.3c-0.7,0-1.2-0.6-1.2-1.2c0-0.7,0.6-1.2,1.2-1.2h7.3c0.7,0,1.2,0.5,1.2,1.2    C36.8,36.3,36.3,36.9,35.6,36.9z"/>
    </g>
  </g>
</svg>
