<?xml version="1.0" ?><svg id="Layer_1" style="enable-background:new 0 0 64 64;" version="1.1" viewBox="0 0 64 64" xml:space="preserve" xmlns="http://www.w3.org/2000/svg" xmlns:xlink="http://www.w3.org/1999/xlink"><style type="text/css">
	.st0{fill:#E84C88;}
	.st1{fill:none;stroke:#6081C4;stroke-width:1.858;stroke-linecap:round;stroke-linejoin:round;stroke-miterlimit:10;}
	.st2{fill:none;stroke:#E84C88;stroke-linecap:round;stroke-linejoin:round;stroke-miterlimit:10;}
	.st3{opacity:0.15;}
	.st4{opacity:0.2;}
	.st5{fill:#FFFFFF;}
</style><circle class="st0" cx="32" cy="32" r="26.1"/><path class="st2" d="M52.1,12.7c4.8,5,7.8,11.8,7.8,19.3c0,15.4-12.5,27.9-27.9,27.9S4.1,47.4,4.1,32S16.6,4.1,32,4.1  c3.4,0,6.7,0.6,9.7,1.7"/><path class="st2" d="M45.5,7.6c1.2,0.6,2.3,1.4,3.3,2.2"/><circle class="st3" cx="32" cy="32" r="22.8"/><circle class="st3" cx="32" cy="32" r="17.5"/><g><g class="st4"><path d="M46.2,32c0-0.8-0.1-1.5-0.3-2.3c-0.2-0.9-0.4-1.8-0.8-2.6c-0.3-0.8-0.8-1.6-1.3-2.3c-0.5-0.7-1.1-1.4-1.7-2    c-0.6-0.6-1.3-1.2-2-1.7c-0.7-0.5-1.5-0.9-2.3-1.3c-0.8-0.4-1.7-0.6-2.6-0.8c-0.9-0.2-1.8-0.3-2.8-0.3c-0.9,0-1.9,0.1-2.8,0.3    c-0.9,0.2-1.8,0.5-2.6,0.8c-0.8,0.3-1.6,0.8-2.3,1.3c-0.7,0.5-1.4,1.1-2,1.7c-0.6,0.6-1.2,1.3-1.7,2c-0.5,0.7-0.9,1.5-1.3,2.3    c-0.4,0.8-0.6,1.7-0.8,2.6c-0.1,0.7-0.2,1.4-0.3,2.1c0,0.2,0,0.4,0,0.6c0,0.9,0.1,1.9,0.3,2.8c0.2,0.9,0.5,1.8,0.8,2.6    c0.3,0.8,0.8,1.6,1.3,2.3c0.5,0.7,1.1,1.4,1.7,2c0.6,0.6,1.3,1.2,2,1.7c0.7,0.5,1.5,0.9,2.3,1.3c0.8,0.4,1.7,0.6,2.6,0.8    c0.9,0.2,1.8,0.3,2.8,0.3c0.9,0,1.9-0.1,2.8-0.3c0.9-0.2,1.8-0.5,2.6-0.8c0.8-0.3,1.6-0.8,2.3-1.3c0.7-0.5,1.4-1.1,2-1.7    c0.6-0.6,1.2-1.3,1.7-2c0.5-0.7,0.9-1.5,1.3-2.3c0.4-0.8,0.6-1.7,0.8-2.6c0.2-0.9,0.3-1.8,0.3-2.8C46.2,32.3,46.2,32.2,46.2,32z     M32.5,20.8c3,0,5.7,1.1,7.8,2.9c0,0-1.7,2.6-6.1,4.3c-2-3.7-4.2-6.6-4.4-6.9C30.6,20.9,31.5,20.8,32.5,20.8z M29.7,21.1    C29.7,21.1,29.7,21.1,29.7,21.1C29.7,21.1,29.7,21.1,29.7,21.1C29.7,21.1,29.7,21.1,29.7,21.1z M27.5,21.9    c0.2,0.2,2.3,3.2,4.4,6.8c-5.6,1.5-10.5,1.4-10.8,1.4C21.8,26.4,24.2,23.4,27.5,21.9z M23.8,40.3c-1.9-2.1-3-4.8-3-7.8    c0-0.1,0-0.2,0-0.4c0.2,0,6,0.1,12.1-1.7c0.3,0.7,0.7,1.3,1,2c-0.2,0-0.3,0.1-0.5,0.1C27,34.6,23.8,40.3,23.8,40.3    C23.8,40.3,23.8,40.3,23.8,40.3z M32.5,44.2c-2.7,0-5.2-0.9-7.2-2.5l0,0c0,0-0.1-0.1-0.3-0.2c0.1,0.1,0.2,0.1,0.3,0.2    c0,0,2.3-4.9,9.2-7.3c0,0,0.1,0,0.1,0c1.7,4.3,2.3,7.9,2.5,8.9C35.7,43.9,34.1,44.2,32.5,44.2z M39.1,42.2    c-0.1-0.7-0.7-4.2-2.3-8.4c3.8-0.6,7.1,0.4,7.3,0.5C43.6,37.6,41.7,40.5,39.1,42.2z M36.1,32c-0.1-0.2-0.2-0.4-0.3-0.6    c-0.2-0.4-0.4-0.8-0.6-1.2c-0.1-0.2-0.1-0.3-0.2-0.5c4.6-1.9,6.5-4.6,6.5-4.6c1.5,1.8,2.4,4,2.6,6.4c0,0.3,0,0.6,0,0.9    C44.1,32.3,40.1,31.5,36.1,32z"/></g><g><path class="st5" d="M45.7,31.5c0-0.8-0.1-1.5-0.3-2.3c-0.2-0.9-0.4-1.8-0.8-2.6c-0.3-0.8-0.8-1.6-1.3-2.3c-0.5-0.7-1.1-1.4-1.7-2    c-0.6-0.6-1.3-1.2-2-1.7c-0.7-0.5-1.5-0.9-2.3-1.3c-0.8-0.4-1.7-0.6-2.6-0.8c-0.9-0.2-1.8-0.3-2.8-0.3c-0.9,0-1.9,0.1-2.8,0.3    c-0.9,0.2-1.8,0.5-2.6,0.8c-0.8,0.3-1.6,0.8-2.3,1.3c-0.7,0.5-1.4,1.1-2,1.7c-0.6,0.6-1.2,1.3-1.7,2c-0.5,0.7-0.9,1.5-1.3,2.3    c-0.4,0.8-0.6,1.7-0.8,2.6c-0.1,0.7-0.2,1.4-0.3,2.1c0,0.2,0,0.4,0,0.6c0,0.9,0.1,1.9,0.3,2.8c0.2,0.9,0.5,1.8,0.8,2.6    c0.3,0.8,0.8,1.6,1.3,2.3c0.5,0.7,1.1,1.4,1.7,2c0.6,0.6,1.3,1.2,2,1.7c0.7,0.5,1.5,0.9,2.3,1.3c0.8,0.4,1.7,0.6,2.6,0.8    c0.9,0.2,1.8,0.3,2.8,0.3c0.9,0,1.9-0.1,2.8-0.3c0.9-0.2,1.8-0.5,2.6-0.8c0.8-0.3,1.6-0.8,2.3-1.3c0.7-0.5,1.4-1.1,2-1.7    c0.6-0.6,1.2-1.3,1.7-2c0.5-0.7,0.9-1.5,1.3-2.3c0.4-0.8,0.6-1.7,0.8-2.6c0.2-0.9,0.3-1.8,0.3-2.8C45.7,31.8,45.7,31.7,45.7,31.5z     M32,20.3c3,0,5.7,1.1,7.8,2.9c0,0-1.7,2.6-6.1,4.3c-2-3.7-4.2-6.6-4.4-6.9C30.1,20.4,31,20.3,32,20.3z M29.2,20.6    C29.2,20.6,29.2,20.6,29.2,20.6C29.2,20.6,29.2,20.6,29.2,20.6C29.2,20.6,29.2,20.6,29.2,20.6z M27,21.4c0.2,0.2,2.3,3.2,4.4,6.8    c-5.6,1.5-10.5,1.4-10.8,1.4C21.3,25.9,23.7,22.9,27,21.4z M23.3,39.8c-1.9-2.1-3-4.8-3-7.8c0-0.1,0-0.2,0-0.4    c0.2,0,6,0.1,12.1-1.7c0.3,0.7,0.7,1.3,1,2c-0.2,0-0.3,0.1-0.5,0.1C26.5,34.1,23.3,39.8,23.3,39.8C23.3,39.8,23.3,39.8,23.3,39.8z     M32,43.7c-2.7,0-5.2-0.9-7.2-2.5l0,0c0,0-0.1-0.1-0.3-0.2c0.1,0.1,0.2,0.1,0.3,0.2c0,0,2.3-4.9,9.2-7.3c0,0,0.1,0,0.1,0    c1.7,4.3,2.3,7.9,2.5,8.9C35.2,43.4,33.6,43.7,32,43.7z M38.6,41.7c-0.1-0.7-0.7-4.2-2.3-8.4c3.8-0.6,7.1,0.4,7.3,0.5    C43.1,37.1,41.2,40,38.6,41.7z M35.6,31.5c-0.1-0.2-0.2-0.4-0.3-0.6c-0.2-0.4-0.4-0.8-0.6-1.2c-0.1-0.2-0.1-0.3-0.2-0.5    c4.6-1.9,6.5-4.6,6.5-4.6c1.5,1.8,2.4,4,2.6,6.4c0,0.3,0,0.6,0,0.9C43.6,31.8,39.6,31,35.6,31.5z"/></g></g></svg>