<?xml version="1.0" ?><svg id="Layer_1" style="enable-background:new 0 0 64 64;" version="1.1" viewBox="0 0 64 64" xml:space="preserve" xmlns="http://www.w3.org/2000/svg" xmlns:xlink="http://www.w3.org/1999/xlink"><style type="text/css">
	.st0{fill:#4189C9;}
	.st1{fill:none;stroke:#6081C4;stroke-width:1.858;stroke-linecap:round;stroke-linejoin:round;stroke-miterlimit:10;}
	.st2{fill:none;stroke:#4189C9;stroke-linecap:round;stroke-linejoin:round;stroke-miterlimit:10;}
	.st3{opacity:0.15;}
	.st4{opacity:0.2;}
	.st5{fill:#FFFFFF;}
</style><circle class="st0" cx="32" cy="32" r="26.1"/><path class="st2" d="M52.1,12.7c4.8,5,7.8,11.8,7.8,19.3c0,15.4-12.5,27.9-27.9,27.9S4.1,47.4,4.1,32S16.6,4.1,32,4.1  c3.4,0,6.7,0.6,9.7,1.7"/><path class="st2" d="M45.5,7.6c1.2,0.6,2.3,1.4,3.3,2.2"/><circle class="st3" cx="32" cy="32" r="22.8"/><circle class="st3" cx="32" cy="32" r="17.5"/><g><g class="st4"><path d="M32.5,25.5l7.1,4.4l-7.1,4.4l-7.1-4.4L32.5,25.5z M39.5,37.8l-2.1,1.4l-4.9-4.1l-4.9,4.1l-2.1-1.4v1.5l7,4.2l7-4.2V37.8    L39.5,37.8L39.5,37.8z M39.6,29.9l4.8-3.9l-7-4.6l-4.9,4.1l-4.9-4.1l-7,4.6l4.8,3.9l-4.8,3.9l7,4.6l4.9-4.1l4.9,4.1l7-4.6    L39.6,29.9z"/></g><g><path class="st5" d="M32,25l7.1,4.4L32,33.7l-7.1-4.4L32,25z M39,37.3l-2.1,1.4L32,34.6l-4.9,4.1L25,37.3v1.5l7,4.2l7-4.2V37.3    L39,37.3L39,37.3z M39.1,29.4l4.8-3.9l-7-4.6L32,25l-4.9-4.1l-7,4.6l4.8,3.9l-4.8,3.9l7,4.6l4.9-4.1l4.9,4.1l7-4.6L39.1,29.4z"/></g></g></svg>