<?xml version="1.0" ?>
<!DOCTYPE svg  PUBLIC '-//W3C//DTD SVG 1.1//EN'  'http://www.w3.org/Graphics/SVG/1.1/DTD/svg11.dtd'>
<svg enable-background="new 0 0 64 64" height="64px" id="Layer_1" version="1.1" viewBox="0 0 64 64" width="64px" xml:space="preserve"
  xmlns="http://www.w3.org/2000/svg"
  xmlns:xlink="http://www.w3.org/1999/xlink">
  <g>
    <defs>
      <rect height="56.75" id="SVGID_1_" width="56.75" x="4" y="3.25"/>
    </defs>
    <clipPath id="SVGID_2_">
      <use overflow="visible" xlink:href="#SVGID_1_"/>
    </clipPath>
    <g clip-path="url(#SVGID_2_)">
      <defs>
        <rect height="56.75" id="SVGID_3_" width="56.75" x="4" y="3.25"/>
      </defs>
      <clipPath id="SVGID_4_">
        <use overflow="visible" xlink:href="#SVGID_3_"/>
      </clipPath>
      <path clip-path="url(#SVGID_4_)" d="M58.521,31.625c0,14.44-11.706,26.146-26.146,26.146    c-14.441,0-26.147-11.706-26.147-26.146c0-14.44,11.706-26.147,26.147-26.147C46.815,5.478,58.521,17.185,58.521,31.625" fill="#EAEAEA"/>
      <path clip-path="url(#SVGID_4_)" d="    M52.459,12.295c4.824,5.011,7.791,11.824,7.791,19.33C60.25,47.02,47.77,59.5,32.375,59.5C16.98,59.5,4.5,47.02,4.5,31.625    C4.5,16.23,16.98,3.75,32.375,3.75c3.404,0,6.668,0.61,9.685,1.728" fill="none" stroke="#EAEAEA" stroke-linecap="round" stroke-linejoin="round" stroke-miterlimit="10"/>
      <path clip-path="url(#SVGID_4_)" d="    M45.876,7.232c1.157,0.642,2.264,1.364,3.313,2.158" fill="none" stroke="#EAEAEA" stroke-linecap="round" stroke-linejoin="round" stroke-miterlimit="10"/>
      <g clip-path="url(#SVGID_4_)" opacity="0.06">
        <g>
          <defs>
            <rect height="45.5" id="SVGID_5_" width="45.5" x="9.625" y="8.875"/>
          </defs>
          <clipPath id="SVGID_6_">
            <use overflow="visible" xlink:href="#SVGID_5_"/>
          </clipPath>
          <path clip-path="url(#SVGID_6_)" d="M55.125,31.625c0,12.564-10.186,22.75-22.75,22.75c-12.564,0-22.75-10.186-22.75-22.75      c0-12.564,10.186-22.75,22.75-22.75C44.939,8.875,55.125,19.061,55.125,31.625"/>
        </g>
      </g>
      <g clip-path="url(#SVGID_4_)" opacity="0.04">
        <g>
          <defs>
            <rect height="34.917" id="SVGID_7_" width="34.917" x="14.917" y="14.167"/>
          </defs>
          <clipPath id="SVGID_8_">
            <use overflow="visible" xlink:href="#SVGID_7_"/>
          </clipPath>
          <path clip-path="url(#SVGID_8_)" d="M49.833,31.625c0,9.642-7.816,17.458-17.458,17.458c-9.642,0-17.459-7.816-17.459-17.458      c0-9.642,7.817-17.458,17.459-17.458C42.017,14.167,49.833,21.983,49.833,31.625"/>
        </g>
      </g>
      <g clip-path="url(#SVGID_4_)" opacity="0.1">
        <g>
          <defs>
            <rect height="11" id="SVGID_9_" width="11.154" x="20.303" y="26.625"/>
          </defs>
          <clipPath id="SVGID_10_">
            <use overflow="visible" xlink:href="#SVGID_9_"/>
          </clipPath>
          <path clip-path="url(#SVGID_10_)" d="M25.88,26.625c-2.826,0-5.16,2.074-5.525,4.761c-0.034,0.242-0.052,0.489-0.052,0.739      c0,3.038,2.497,5.5,5.577,5.5c3.081,0,5.577-2.462,5.577-5.5c0-0.82-0.182-1.599-0.51-2.298      C30.064,27.938,28.128,26.625,25.88,26.625"/>
        </g>
      </g>
      <path clip-path="url(#SVGID_4_)" d="M25.38,26.125c-2.826,0-5.16,2.074-5.525,4.761    c-0.034,0.242-0.052,0.489-0.052,0.739c0,3.038,2.497,5.5,5.577,5.5c3.081,0,5.577-2.462,5.577-5.5c0-0.82-0.182-1.599-0.51-2.298    C29.564,27.438,27.628,26.125,25.38,26.125" fill="#0061DA"/>
      <g clip-path="url(#SVGID_4_)" opacity="0.1">
        <g>
          <defs>
            <rect height="11" id="SVGID_11_" width="11.152" x="34.295" y="26.625"/>
          </defs>
          <clipPath id="SVGID_12_">
            <use overflow="visible" xlink:href="#SVGID_11_"/>
          </clipPath>
          <path clip-path="url(#SVGID_12_)" d="M45.428,31.688c-0.226-2.833-2.627-5.063-5.557-5.063c-2.265,0-4.215,1.333-5.086,3.245      c-0.313,0.689-0.489,1.451-0.489,2.256c0,3.037,2.496,5.5,5.575,5.5c3.078,0,5.576-2.463,5.576-5.5      C45.447,31.979,45.439,31.834,45.428,31.688"/>
        </g>
      </g>
      <path clip-path="url(#SVGID_4_)" d="M44.928,31.188c-0.226-2.833-2.627-5.063-5.557-5.063    c-2.265,0-4.215,1.333-5.086,3.245c-0.313,0.689-0.489,1.451-0.489,2.256c0,3.037,2.496,5.5,5.575,5.5    c3.078,0,5.576-2.463,5.576-5.5C44.947,31.479,44.939,31.334,44.928,31.188" fill="#FF0082"/>
    </g>
  </g>
</svg>
