<?xml version="1.0" ?><svg id="Layer_1" style="enable-background:new 0 0 64 64;" version="1.1" viewBox="0 0 64 64" xml:space="preserve" xmlns="http://www.w3.org/2000/svg" xmlns:xlink="http://www.w3.org/1999/xlink"><style type="text/css">
	.st0{fill:#29A8F7;}
	.st1{fill:none;stroke:#6081C4;stroke-width:1.858;stroke-linecap:round;stroke-linejoin:round;stroke-miterlimit:10;}
	.st2{fill:none;stroke:#29A8F7;stroke-linecap:round;stroke-linejoin:round;stroke-miterlimit:10;}
	.st3{opacity:0.15;}
	.st4{opacity:0.2;}
	.st5{fill:#FFFFFF;}
</style><circle class="st0" cx="32" cy="32" r="26.1"/><path class="st2" d="M52.1,12.7c4.8,5,7.8,11.8,7.8,19.3c0,15.4-12.5,27.9-27.9,27.9S4.1,47.4,4.1,32S16.6,4.1,32,4.1  c3.4,0,6.7,0.6,9.7,1.7"/><path class="st2" d="M45.5,7.6c1.2,0.6,2.3,1.4,3.3,2.2"/><circle class="st3" cx="32" cy="32" r="22.8"/><circle class="st3" cx="32" cy="32" r="17.5"/><g><g class="st4"><path d="M39.7,28.7c-0.9,0-1.6,0.4-1.6,1.5c0,2.5,0,7.4,0,8.8c0,1.3-2.5,1.6-2.5-0.1c0-1.7,0-3.2,0-5.7c-1.2-7.1-8.3-4.6-8.7-2.3    c0-2.6,0-3.9,0-5.6c-0.7-3.5-3.7-1.9-3.7-1.9s-0.1,15.5-0.1,17.1c0,1.7,3.8,1.8,3.8-0.1c0-1.9,0-4.7,0-6.3c0.1-2.9,5-3.3,5-0.2    c0,2.1,0.1,2.7,0.1,4.7c0,2.1,2.6,3.4,4.9,3.4c2.3,0,4.9-1.1,4.9-3.7c0-2.6,0-6.4,0-8.4C41.8,29,40.6,28.6,39.7,28.7z"/><path d="M40,26.9c2-0.1,1.9-2,1.9-2s0-2-2.1-2c-2.2,0.1-1.9,2-1.9,2S37.9,27,40,26.9z"/></g><g><g><path class="st5" d="M39.2,28.2c-0.9,0-1.6,0.4-1.6,1.5c0,2.5,0,7.4,0,8.8c0,1.3-2.5,1.6-2.5-0.1c0-1.7,0-3.2,0-5.7     c-1.2-7.1-8.3-4.6-8.7-2.3c0-2.6,0-3.9,0-5.6c-0.7-3.5-3.7-1.9-3.7-1.9S22.6,38.3,22.6,40c0,1.7,3.8,1.8,3.8-0.1     c0-1.9,0-4.7,0-6.3c0.1-2.9,5-3.3,5-0.2c0,2.1,0.1,2.7,0.1,4.7c0,2.1,2.6,3.4,4.9,3.4c2.3,0,4.9-1.1,4.9-3.7c0-2.6,0-6.4,0-8.4     C41.3,28.5,40.1,28.1,39.2,28.2z"/><path class="st5" d="M39.5,26.4c2-0.1,1.9-2,1.9-2s0-2-2.1-2c-2.2,0.1-1.9,2-1.9,2S37.4,26.5,39.5,26.4z"/></g></g></g></svg>