<?xml version="1.0" ?>
<svg id="Layer_1" style="enable-background:new 0 0 64 64;" version="1.1" viewBox="0 0 64 64" xml:space="preserve" width="64px" height="64px"
  xmlns="http://www.w3.org/2000/svg"
  xmlns:xlink="http://www.w3.org/1999/xlink">
  <style type="text/css">
	.st0{fill:#32C5F0;}
	.st1{fill:none;stroke:#6081C4;stroke-width:1.858;stroke-linecap:round;stroke-linejoin:round;stroke-miterlimit:10;}
	.st2{fill:none;stroke:#32C5F0;stroke-linecap:round;stroke-linejoin:round;stroke-miterlimit:10;}
	.st3{opacity:0.15;}
	.st4{opacity:0.2;}
	.st5{fill:#FFFFFF;}
</style>
  <circle class="st0" cx="32" cy="32" r="26.1"/>
  <path class="st2" d="M52.1,12.7c4.8,5,7.8,11.8,7.8,19.3c0,15.4-12.5,27.9-27.9,27.9S4.1,47.4,4.1,32S16.6,4.1,32,4.1  c3.4,0,6.7,0.6,9.7,1.7"/>
  <path class="st2" d="M45.5,7.6c1.2,0.6,2.3,1.4,3.3,2.2"/>
  <circle class="st3" cx="32" cy="32" r="22.8"/>
  <circle class="st3" cx="32" cy="32" r="17.5"/>
  <g>
    <g class="st4">
      <path d="M42.9,34.8c0.2-0.7,0.2-1.5,0.2-2.2c0-0.3,0-0.5,0-0.8c-0.4-5.4-4.9-9.6-10.5-9.6c-0.6,0-1.2,0.1-1.8,0.2    c-0.9-0.6-2.1-0.9-3.2-0.9c-3.4,0-6.1,2.7-6.1,6c0,1.1,0.3,2.1,0.8,3c-0.1,0.4-0.1,0.8-0.2,1.1c0,0.3,0,0.6,0,0.9    c0,5.7,4.7,10.4,10.5,10.4c0.7,0,1.3-0.1,1.9-0.2c0.9,0.5,1.8,0.7,2.9,0.7c3.4,0,6.1-2.7,6.1-6C43.5,36.5,43.3,35.6,42.9,34.8z     M38,37.6c-0.5,0.7-1.2,1.2-2.1,1.6c-0.9,0.4-2,0.6-3.3,0.6c-1.5,0-2.8-0.3-3.8-0.8c-0.7-0.4-1.3-0.9-1.7-1.5    c-0.4-0.6-0.7-1.3-0.7-1.9c0-0.4,0.1-0.7,0.4-1c0.3-0.3,0.7-0.4,1.1-0.4c0.4,0,0.7,0.1,0.9,0.3c0.2,0.2,0.5,0.5,0.6,0.9    c0.2,0.4,0.4,0.8,0.6,1.1c0.2,0.3,0.5,0.5,0.9,0.7c0.4,0.2,0.9,0.3,1.5,0.3c0.9,0,1.6-0.2,2.1-0.5c0.5-0.4,0.8-0.8,0.8-1.3    c0-0.4-0.1-0.7-0.4-1c-0.3-0.3-0.7-0.5-1.1-0.6c-0.5-0.1-1.1-0.3-1.9-0.5c-1.1-0.2-2-0.5-2.8-0.8c-0.8-0.3-1.4-0.8-1.8-1.3    c-0.1-0.2-0.3-0.4-0.4-0.6c-0.2-0.4-0.3-0.9-0.3-1.5c0-0.8,0.2-1.5,0.7-2.1c0.5-0.6,1.2-1.1,2-1.4c0.9-0.3,1.9-0.5,3.1-0.5    c0.9,0,1.8,0.1,2.5,0.3c0.7,0.2,1.3,0.5,1.7,0.9c0.5,0.4,0.8,0.7,1,1.1c0.2,0.4,0.3,0.8,0.3,1.2c0,0.4-0.1,0.7-0.4,1    c-0.3,0.3-0.7,0.4-1.1,0.4c-0.4,0-0.7-0.1-0.9-0.3c-0.2-0.2-0.4-0.4-0.6-0.8c-0.3-0.5-0.6-0.9-0.9-1.2c-0.4-0.3-0.9-0.4-1.8-0.4    c-0.8,0-1.4,0.1-1.8,0.4c-0.4,0.3-0.7,0.6-0.7,1c0,0.2,0.1,0.4,0.2,0.6c0.1,0.2,0.4,0.3,0.6,0.5c0.3,0.1,0.6,0.2,0.8,0.3    c0.1,0,0.1,0,0.2,0c0.3,0.1,0.7,0.2,1.3,0.3c0.8,0.2,1.6,0.4,2.3,0.6c0.7,0.2,1.3,0.5,1.8,0.8c0.5,0.3,0.9,0.7,1.2,1.2    c0.3,0.5,0.4,1.1,0.4,1.8C38.7,36.1,38.5,36.9,38,37.6z"/>
    </g>
    <g>
      <path class="st5" d="M42.4,34.3c0.2-0.7,0.2-1.5,0.2-2.2c0-0.3,0-0.5,0-0.8c-0.4-5.4-4.9-9.6-10.5-9.6c-0.6,0-1.2,0.1-1.8,0.2    c-0.9-0.6-2.1-0.9-3.2-0.9c-3.4,0-6.1,2.7-6.1,6c0,1.1,0.3,2.1,0.8,3c-0.1,0.4-0.1,0.8-0.2,1.1c0,0.3,0,0.6,0,0.9    c0,5.7,4.7,10.4,10.5,10.4c0.7,0,1.3-0.1,1.9-0.2c0.9,0.5,1.8,0.7,2.9,0.7c3.4,0,6.1-2.7,6.1-6C43,36,42.8,35.1,42.4,34.3z     M37.5,37.1c-0.5,0.7-1.2,1.2-2.1,1.6c-0.9,0.4-2,0.6-3.3,0.6c-1.5,0-2.8-0.3-3.8-0.8c-0.7-0.4-1.3-0.9-1.7-1.5    c-0.4-0.6-0.7-1.3-0.7-1.9c0-0.4,0.1-0.7,0.4-1c0.3-0.3,0.7-0.4,1.1-0.4c0.4,0,0.7,0.1,0.9,0.3c0.2,0.2,0.5,0.5,0.6,0.9    c0.2,0.4,0.4,0.8,0.6,1.1c0.2,0.3,0.5,0.5,0.9,0.7c0.4,0.2,0.9,0.3,1.5,0.3c0.9,0,1.6-0.2,2.1-0.5c0.5-0.4,0.8-0.8,0.8-1.3    c0-0.4-0.1-0.7-0.4-1c-0.3-0.3-0.7-0.5-1.1-0.6c-0.5-0.1-1.1-0.3-1.9-0.5c-1.1-0.2-2-0.5-2.8-0.8c-0.8-0.3-1.4-0.8-1.8-1.3    c-0.1-0.2-0.3-0.4-0.4-0.6c-0.2-0.4-0.3-0.9-0.3-1.5c0-0.8,0.2-1.5,0.7-2.1c0.5-0.6,1.2-1.1,2-1.4c0.9-0.3,1.9-0.5,3.1-0.5    c0.9,0,1.8,0.1,2.5,0.3c0.7,0.2,1.3,0.5,1.7,0.9c0.5,0.4,0.8,0.7,1,1.1c0.2,0.4,0.3,0.8,0.3,1.2c0,0.4-0.1,0.7-0.4,1    c-0.3,0.3-0.7,0.4-1.1,0.4c-0.4,0-0.7-0.1-0.9-0.3c-0.2-0.2-0.4-0.4-0.6-0.8c-0.3-0.5-0.6-0.9-0.9-1.2c-0.4-0.3-0.9-0.4-1.8-0.4    c-0.8,0-1.4,0.1-1.8,0.4c-0.4,0.3-0.7,0.6-0.7,1c0,0.2,0.1,0.4,0.2,0.6c0.1,0.2,0.4,0.3,0.6,0.5c0.3,0.1,0.6,0.2,0.8,0.3    c0.1,0,0.1,0,0.2,0c0.3,0.1,0.7,0.2,1.3,0.3c0.8,0.2,1.6,0.4,2.3,0.6c0.7,0.2,1.3,0.5,1.8,0.8c0.5,0.3,0.9,0.7,1.2,1.2    c0.3,0.5,0.4,1.1,0.4,1.8C38.2,35.6,38,36.4,37.5,37.1z"/>
    </g>
  </g>
</svg>
