<?xml version="1.0" ?><svg id="Layer_1" style="enable-background:new 0 0 64 64;" version="1.1" viewBox="0 0 64 64" xml:space="preserve" xmlns="http://www.w3.org/2000/svg" xmlns:xlink="http://www.w3.org/1999/xlink"><style type="text/css">
	.st0{fill:#F15B2D;}
	.st1{fill:none;stroke:#6081C4;stroke-width:1.858;stroke-linecap:round;stroke-linejoin:round;stroke-miterlimit:10;}
	.st2{fill:none;stroke:#F15B2D;stroke-linecap:round;stroke-linejoin:round;stroke-miterlimit:10;}
	.st3{opacity:0.15;}
	.st4{opacity:0.2;}
	.st5{fill:#FFFFFF;}
</style><circle class="st0" cx="32" cy="32" r="26.1"/><path class="st2" d="M52.1,12.7c4.8,5,7.8,11.8,7.8,19.3c0,15.4-12.5,27.9-27.9,27.9S4.1,47.4,4.1,32S16.6,4.1,32,4.1  c3.4,0,6.7,0.6,9.7,1.7"/><path class="st2" d="M45.5,7.6c1.2,0.6,2.3,1.4,3.3,2.2"/><circle class="st3" cx="32" cy="32" r="22.8"/><circle class="st3" cx="32" cy="32" r="17.5"/><g><g class="st4"><path d="M32.5,27.5c-0.7,0-1.2,0.6-1.2,1.2v7.4c0,2.9-2.4,5.3-5.3,5.3c-2.9,0-5.3-2.4-5.3-5.3v-3.1h4.1v3.1c0,0.7,0.6,1.2,1.2,1.2    c0.7,0,1.2-0.6,1.2-1.2v-7.4c0-2.9,2.4-5.3,5.3-5.3c2.9,0,5.3,2.4,5.3,5.3v1.4L35.4,31l-1.6-0.8v-1.4    C33.7,28.1,33.2,27.5,32.5,27.5z M39,41.5c-2.9,0-5.3-2.4-5.3-5.3V33l1.6,0.8l2.4-0.8v3.2c0,0.7,0.6,1.2,1.2,1.2    c0.7,0,1.2-0.6,1.2-1.2v-3.1h4.1v3.1h0C44.3,39.1,42,41.5,39,41.5z"/></g><g><path class="st5" d="M32,27c-0.7,0-1.2,0.6-1.2,1.2v7.4c0,2.9-2.4,5.3-5.3,5.3c-2.9,0-5.3-2.4-5.3-5.3v-3.1h4.1v3.1    c0,0.7,0.6,1.2,1.2,1.2c0.7,0,1.2-0.6,1.2-1.2v-7.4c0-2.9,2.4-5.3,5.3-5.3c2.9,0,5.3,2.4,5.3,5.3v1.4l-2.4,0.8l-1.6-0.8v-1.4    C33.2,27.6,32.7,27,32,27z M38.5,41c-2.9,0-5.3-2.4-5.3-5.3v-3.2l1.6,0.8l2.4-0.8v3.2c0,0.7,0.6,1.2,1.2,1.2    c0.7,0,1.2-0.6,1.2-1.2v-3.1h4.1v3.1h0C43.8,38.6,41.5,41,38.5,41z"/></g></g></svg>