<?xml version="1.0" ?><svg id="Layer_1" style="enable-background:new 0 0 64 64;" version="1.1" viewBox="0 0 64 64" xml:space="preserve" xmlns="http://www.w3.org/2000/svg" xmlns:xlink="http://www.w3.org/1999/xlink"><style type="text/css">
	.st0{fill:#23B6EA;}
	.st1{fill:none;stroke:#6081C4;stroke-width:1.858;stroke-linecap:round;stroke-linejoin:round;stroke-miterlimit:10;}
	.st2{fill:none;stroke:#23B6EA;stroke-linecap:round;stroke-linejoin:round;stroke-miterlimit:10;}
	.st3{opacity:0.15;}
	.st4{opacity:0.2;}
	.st5{fill:#FFFFFF;}
</style><circle class="st0" cx="32" cy="32" r="26.1"/><path class="st2" d="M52.1,12.7c4.8,5,7.8,11.8,7.8,19.3c0,15.4-12.5,27.9-27.9,27.9S4.1,47.4,4.1,32S16.6,4.1,32,4.1  c3.4,0,6.7,0.6,9.7,1.7"/><path class="st2" d="M45.5,7.6c1.2,0.6,2.3,1.4,3.3,2.2"/><circle class="st3" cx="32" cy="32" r="22.8"/><circle class="st3" cx="32" cy="32" r="17.5"/><g><g class="st4"><path d="M44,27.2c-1.3,7.3-8.6,13.6-10.8,15c-2.2,1.4-4.2-0.6-4.9-2.1c-0.8-1.7-3.3-11-4-11.8c-0.7-0.8-2.6,0.8-2.6,0.8l-0.9-1.2    c0,0,4-4.7,7-5.3c3.2-0.6,3.2,4.9,4,8c0.7,3,1.2,4.7,1.9,4.7c0.7,0,1.9-1.7,3.3-4.2c1.4-2.5-0.1-4.8-2.7-3.2    C35.3,21.4,45.3,19.9,44,27.2z"/></g><g><path class="st5" d="M43.5,26.7c-1.3,7.3-8.6,13.6-10.8,15c-2.2,1.4-4.2-0.6-4.9-2.1c-0.8-1.7-3.3-11-4-11.8    c-0.7-0.8-2.6,0.8-2.6,0.8l-0.9-1.2c0,0,4-4.7,7-5.3c3.2-0.6,3.2,4.9,4,8c0.7,3,1.2,4.7,1.9,4.7c0.7,0,1.9-1.7,3.3-4.2    c1.4-2.5-0.1-4.8-2.7-3.2C34.8,20.9,44.8,19.4,43.5,26.7z"/></g></g></svg>