<?xml version="1.0" ?><svg id="Layer_1" style="enable-background:new 0 0 64 64;" version="1.1" viewBox="0 0 64 64" xml:space="preserve" xmlns="http://www.w3.org/2000/svg" xmlns:xlink="http://www.w3.org/1999/xlink"><style type="text/css">
	.st0{fill:#673276;}
	.st1{fill:none;stroke:#6081C4;stroke-width:1.858;stroke-linecap:round;stroke-linejoin:round;stroke-miterlimit:10;}
	.st2{fill:none;stroke:#673276;stroke-linecap:round;stroke-linejoin:round;stroke-miterlimit:10;}
	.st3{opacity:0.15;}
	.st4{opacity:0.2;}
	.st5{fill:#FEFEFE;}
</style><circle class="st0" cx="32" cy="32" r="26.1"/><path class="st2" d="M52.1,12.7c4.8,5,7.8,11.8,7.8,19.3c0,15.4-12.5,27.9-27.9,27.9S4.1,47.4,4.1,32S16.6,4.1,32,4.1  c3.4,0,6.7,0.6,9.7,1.7"/><path class="st2" d="M45.5,7.6c1.2,0.6,2.3,1.4,3.3,2.2"/><circle class="st3" cx="32" cy="32" r="22.8"/><circle class="st3" cx="32" cy="32" r="17.5"/><g><g class="st4"><path d="M44.5,26.1L44.4,26l-1.6,0c-2.5,0-5,0.1-7.4,0.1l-1.5,0l-0.1,0.1v1.5l0.1,0.1l0.9,0l2.8,0.1l0.1,0l-0.2,0.2    c-1.7,1.4-3.3,2.8-4.9,4.2l-0.2,0c-1.4-1.7-2.8-3.5-4.2-5.2l-1-1.2h0.1l1.6-0.1l1.7-0.1l0.1-0.1l0.2-1.5l-0.1-0.1    c-4.2,0-8.5,0-12.7,0L17.9,24v1.4l0.2,0.2l3.5,0.2l0.2,0.1l3.1,3.8c1.4,1.7,2.7,3.3,4.1,5l0.1,0.2v1.6v2.7L29,39.3l-1.8,0.2    l-2.1,0.2L25,39.8l0,1.2l0.1,0.1c4.2,0,8.3,0,12.4,0h0.1l0.1-0.1v-1.3l-0.1-0.1l-0.6,0l-3.4-0.1l-0.1-0.1c0.1-1.6,0.1-3.1,0.1-4.7    l0.1-0.1l1.7-1.5c1.8-1.6,3.5-3.2,5.3-4.7l0.2-0.1l0.8-0.1l2.7-0.2l0.1-0.1V26.1z"/><polygon points="47.1,30 47,30.3 46.2,33.6 45.3,37.2 45.3,37.3 44,37.1 43.9,37.1 43.8,37.1 43.8,36.6 43.9,36.2 43.9,34.9     43.9,33.6 43.9,32.2 44,30.8 44,29.8 44,29.8 44.8,29.8 45.3,29.9 46.3,29.9 46.9,29.9 47.1,29.9   "/><polygon points="44.6,39.8 43.8,39.8 43.7,39.7 43.6,38.9 43.6,38.2 43.6,38.2 44,38.2 44.6,38.2 45.3,38.3 45.4,38.3 45.5,38.3     45.5,39.7 45.4,39.8   "/></g><g><g><path class="st5" d="M44,25.6l-0.1-0.1l-1.6,0c-2.5,0-5,0.1-7.4,0.1l-1.5,0l-0.1,0.1v1.5l0.1,0.1l0.9,0l2.8,0.1l0.1,0L37,27.7     c-1.7,1.4-3.3,2.8-4.9,4.2l-0.2,0c-1.4-1.7-2.8-3.5-4.2-5.2l-1-1.2h0.1l1.6-0.1l1.7-0.1l0.1-0.1l0.2-1.5l-0.1-0.1     c-4.2,0-8.5,0-12.7,0l-0.1,0.1v1.4l0.2,0.2l3.5,0.2l0.2,0.1l3.1,3.8c1.4,1.7,2.7,3.3,4.1,5l0.1,0.2V36v2.7l-0.1,0.1L26.7,39     l-2.1,0.2l-0.1,0.1l0,1.2l0.1,0.1c4.2,0,8.3,0,12.4,0h0.1l0.1-0.1v-1.3l-0.1-0.1l-0.6,0L33.2,39l-0.1-0.1     c0.1-1.6,0.1-3.1,0.1-4.7l0.1-0.1l1.7-1.5c1.8-1.6,3.5-3.2,5.3-4.7l0.2-0.1l0.8-0.1l2.7-0.2l0.1-0.1V25.6z"/><polygon class="st5" points="46.6,29.5 46.5,29.8 45.7,33.1 44.8,36.7 44.8,36.8 43.5,36.6 43.4,36.6 43.3,36.6 43.3,36.1      43.4,35.7 43.4,34.4 43.4,33.1 43.4,31.7 43.5,30.3 43.5,29.3 43.5,29.3 44.3,29.3 44.8,29.4 45.8,29.4 46.4,29.4 46.6,29.4         "/><polygon class="st5" points="44.1,39.3 43.3,39.3 43.2,39.2 43.1,38.4 43.1,37.7 43.1,37.7 43.5,37.7 44.1,37.7 44.8,37.8      44.9,37.8 45,37.8 45,39.2 44.9,39.3    "/></g></g></g></svg>